<svg width="6671" height="1345" viewBox="0 0 6671 1345" fill="none" xmlns="http://www.w3.org/2000/svg">
<path d="M218.661 886.555C218.661 963.781 235.633 1023.15 257.793 1059.02C286.846 1106.01 330.202 1125.94 374.374 1125.94C431.368 1125.94 483.469 1111.79 583.968 972.823C664.455 861.43 759.321 705.124 823.133 607.072L931.191 440.983C1006.27 325.662 1093.13 197.445 1192.81 110.584C1274.11 39.657 1361.87 0.228271 1450.21 0.228271C1598.44 0.228271 1739.7 86.1261 1847.76 247.249C1966.04 423.714 2023.48 645.982 2023.48 875.364C2023.48 1011.73 1996.58 1111.93 1950.85 1191.09C1906.68 1267.65 1820.56 1344.13 1675.66 1344.13V1125.87C1799.73 1125.87 1830.64 1011.88 1830.64 881.441C1830.64 695.564 1787.28 489.231 1691.82 341.819C1624.08 237.244 1536.26 173.358 1439.61 173.358C1335.11 173.358 1251.07 252.141 1156.57 392.661C1106.32 467.293 1054.74 558.305 996.855 660.952L933.118 773.902C805.049 1000.99 772.587 1052.64 708.627 1138.02C596.419 1287.44 500.59 1344.13 374.448 1344.13C224.812 1344.13 130.169 1279.36 71.5453 1181.68C23.5937 1102.15 0.0996094 997.725 0.0996094 878.699L218.661 886.555Z" fill="#0081FB"/>
<path d="M172.414 262.739C272.616 108.286 417.212 0.302399 583.079 0.302399C679.13 0.302399 774.589 28.7622 874.272 110.139C983.367 199.15 1099.58 345.673 1244.62 587.283L1296.65 673.996C1422.19 883.145 1493.57 990.684 1535.37 1041.45C1589.1 1106.6 1626.75 1126.02 1675.66 1126.02C1799.73 1126.02 1830.64 1012.03 1830.64 881.589L2023.41 875.512C2023.41 1011.88 1996.5 1112.08 1950.77 1191.24C1906.6 1267.8 1820.48 1344.28 1675.59 1344.28C1585.54 1344.28 1505.72 1324.72 1417.53 1241.49C1349.71 1177.6 1270.41 1064.13 1209.41 962.077L1027.98 658.951C936.972 506.796 853.446 393.402 805.049 342.041C753.021 286.826 686.245 220.124 579.521 220.124C493.179 220.124 419.88 280.675 358.514 373.391L172.414 262.739Z" fill="url(#paint0_linear_201_3)"/>
<path d="M579.521 219.976C493.178 219.976 419.88 280.527 358.514 373.243C271.727 504.202 218.661 699.195 218.661 886.555C218.661 963.781 235.633 1023.15 257.793 1059.02L71.4711 1181.75C23.5937 1102.15 0.0996094 997.725 0.0996094 878.699C0.0996094 662.361 59.4647 436.832 172.414 262.665C272.616 108.212 417.212 0.228271 583.078 0.228271L579.521 219.976Z" fill="url(#paint1_linear_201_3)"/>
<path d="M2448.23 42.7698H2701.03L3130.89 820.371L3560.82 42.7698H3808.14V1320.56H3601.88V341.226L3224.86 1019.37H3031.35L2654.41 341.226V1320.49H2448.15V42.7698H2448.23ZM4454.34 519.173C4306.41 519.173 4217.4 630.492 4196.05 768.343H4698.02C4687.65 626.342 4605.75 519.173 4454.34 519.173ZM3991.57 846.83C3991.57 556.823 4179 345.747 4457.89 345.747C4732.26 345.747 4896.05 554.155 4896.05 862.319V918.942H4196.05C4220.88 1068.87 4320.41 1169.89 4480.8 1169.89C4608.79 1169.89 4688.76 1130.83 4764.65 1059.39L4874.19 1193.53C4770.95 1288.47 4639.7 1343.17 4473.46 1343.17C4171.52 1343.32 3991.57 1123.13 3991.57 846.83ZM5146.11 537.479H4956.31V368.648H5146.11V89.3875H5345.11V368.648H5633.49V537.479H5345.11V965.486C5345.11 1111.64 5391.8 1163.52 5506.68 1163.52C5559.08 1163.52 5589.17 1159 5633.56 1151.66V1318.71C5578.27 1334.35 5525.5 1341.54 5468.36 1341.54C5253.58 1341.54 5146.19 1224.14 5146.19 989.276L5146.11 537.479ZM6471.34 701.715C6431.4 600.846 6342.24 526.51 6211.2 526.51C6040.96 526.51 5931.94 647.316 5931.94 844.088C5931.94 1035.97 6032.29 1162.63 6203.05 1162.63C6337.27 1162.63 6433.1 1084.51 6471.34 987.349V701.715ZM6670.34 1320.49H6475.05V1187.23C6420.43 1265.72 6321.11 1343.32 6160.21 1343.32C5901.41 1343.32 5728.5 1126.68 5728.5 844.088C5728.5 558.824 5905.63 345.747 6171.18 345.747C6302.51 345.747 6405.46 398.219 6475.05 490.936V368.648H6670.34V1320.49Z" fill="#192830"/>
<defs>
<linearGradient id="paint0_linear_201_3" x1="438.705" y1="637.392" x2="1831.85" y2="707.755" gradientUnits="userSpaceOnUse">
<stop stop-color="#0064E1"/>
<stop offset="0.4" stop-color="#0064E1"/>
<stop offset="0.83" stop-color="#0073EE"/>
<stop offset="1" stop-color="#0082FB"/>
</linearGradient>
<linearGradient id="paint1_linear_201_3" x1="291.574" y1="978.285" x2="291.574" y2="464.655" gradientUnits="userSpaceOnUse">
<stop stop-color="#0082FB"/>
<stop offset="1" stop-color="#0064E0"/>
</linearGradient>
</defs>
</svg>
